<?xml version="1.0" encoding="UTF-8"?>
<svg id="Calque_1" xmlns="http://www.w3.org/2000/svg" version="1.1" viewBox="0 0 2193.6 1382.9">
  <!-- Generator: Adobe Illustrator 30.0.0, SVG Export Plug-In . SVG Version: 2.1.1 Build 123)  -->
  <defs>
    <style>
      .st0 {
        fill: #161616;
      }
    </style>
  </defs>
  <path class="st0" d="M918.6,662.9v-201.1h-58.3v99.4c0,37-19.4,54.2-46.3,54.2s-40.7-15-40.7-48.6v-105h-58.3v113.6c0,62,35.5,90.5,86,90.5s47.1-9.3,62.4-26.9v23.9h55.3Z"/>
  <path class="st0" d="M1333.1,665.9c36.2,0,64.3-11.2,83-32.5l-31-33.6c-13.8,13.1-29.2,19.4-50.5,19.4s-44.8-10.1-53.4-29.9l148.8-28.8c-.4-64.3-47.1-101.7-103.9-101.7s-107.6,43.4-107.6,103.5,45.2,103.5,114.7,103.5h0ZM1325.9,503c24.3,0,41.9,13.8,47.5,34.4l-97.9,19.1c1.1-34,21.3-53.5,50.5-53.5h0Z"/>
  <path class="st0" d="M739.3,717c-30.3,0-56.4,12.3-72.5,32.9-14.2-22-38.1-32.9-66.2-32.9s-48.2,9-63.2,26.2v-23.2h-55.7v201.1h58.3v-100.9c0-35.9,18.3-52.7,44.1-52.7s38.1,15,38.1,47.5v106.2h58.3v-100.9c0-35.9,18.3-52.7,44.5-52.7s38.1,15,38.1,47.5v106.2h58.3v-115.1c0-61.3-34.4-89-82.2-89h0Z"/>
  <path class="st0" d="M1616.5,877.4c-26.2,0-44.8-10.1-53.4-29.9l148.8-28.8c-.4-64.3-47.1-101.7-103.9-101.7s-107.6,43.4-107.6,103.5,45.2,103.5,114.7,103.5,64.3-11.2,83-32.5l-31-33.6c-13.8,13.1-29.2,19.4-50.5,19.4h0ZM1607.9,761.1c24.3,0,41.9,13.8,47.5,34.4l-97.9,19.1c1.1-34,21.3-53.5,50.5-53.5h0Z"/>
  <path class="st0" d="M1378.4,717c-30.3,0-56.4,12.3-72.5,32.9-14.2-22-38.1-32.9-66.2-32.9s-48.2,9-63.2,26.2v-8.6h0l.3-71.6h0v-115.1c0-61.3-35.7-89-82.8-89s-50.5,9.3-66.1,26.5v-23.5h-55.3v201.1h57.9v-99.4c0-37,20.1-54.2,47.9-54.2s40.5,15,40.5,47.5l.9,106.2h0l.8,71.2v187h58.3v-100.9c0-35.9,18.3-52.7,44.1-52.7s38.1,15,38.1,47.5v106.2h58.3v-100.9c0-35.9,18.3-52.7,44.5-52.7s38.1,15,38.1,47.5v106.2h58.3v-115.1c0-61.3-34.4-89-82.2-89h0Z"/>
  <path class="st0" d="M918.4,836.1l-42.4-13.6c0,58.1,47.1,105.2,105.2,105.3l-13.7-42.6c-7.5-23.3-25.8-41.6-49.1-49.1h0Z"/>
  <path class="st0" d="M981.3,717h-.2l13.7,42.6c7.5,23.3,25.8,41.6,49.1,49.1l42.6,13.7-42.6,13.7c-23.3,7.5-41.6,25.8-49.1,49.1l-13.7,42.6h.2c58.2,0,105.4-47.2,105.4-105.4s-47.2-105.4-105.4-105.4h0Z"/>
  <path class="st0" d="M967.5,759.6l13.7-42.6c-58.1,0-105.2,47.2-105.2,105.3l42.4-13.6c23.3-7.5,41.6-25.8,49.1-49.1h0Z"/>
  <path class="st0" d="M981.2,927.8h0s0,0,0,0Z"/>
  <path class="st0" d="M981.2,717h0s0,0,0,0h0s0,0,0,0Z"/>
  <path class="st0" d="M876,822.3h-.2c0,0,.2.1.2.1h0Z"/>
</svg>