<?xml version="1.0" encoding="UTF-8"?>
<svg id="Calque_1" data-name="Calque 1" xmlns="http://www.w3.org/2000/svg" viewBox="0 0 2193.57 1382.94">
  <defs>
    <style>
      .cls-1 {
        fill: #f44f27;
      }
    </style>
  </defs>
  <path class="cls-1" d="M918.57,662.94v-201.08h-58.31v99.42c0,37-19.43,54.19-46.35,54.19s-40.74-14.95-40.74-48.59v-105.03h-58.31v113.62c0,62.04,35.51,90.45,85.96,90.45,24.67,0,47.09-9.34,62.42-26.91v23.92h55.32Z"/>
  <path class="cls-1" d="M1333.05,665.93c36.25,0,64.29-11.21,82.97-32.52l-31.02-33.64c-13.83,13.08-29.15,19.44-50.46,19.44-26.16,0-44.85-10.09-53.45-29.9l148.76-28.78c-.37-64.29-47.09-101.66-103.91-101.66-62.04,0-107.64,43.36-107.64,103.53s45.23,103.53,114.74,103.53ZM1325.94,502.97c24.29,0,41.86,13.83,47.47,34.39l-97.92,19.06c1.12-34.01,21.3-53.45,50.46-53.45Z"/>
  <path class="cls-1" d="M739.31,717.01c-30.27,0-56.44,12.33-72.51,32.89-14.2-22.05-38.12-32.89-66.16-32.89-25.79,0-48.21,8.97-63.16,26.16v-23.17h-55.69v201.08h58.31v-100.91c0-35.88,18.31-52.7,44.1-52.7,24.29,0,38.12,14.95,38.12,47.47v106.15h58.31v-100.91c0-35.88,18.31-52.7,44.48-52.7,23.55,0,38.12,14.95,38.12,47.47v106.15h58.31v-115.12c0-61.3-34.38-88.95-82.23-88.95Z"/>
  <path class="cls-1" d="M1616.48,877.36c-26.16,0-44.85-10.09-53.45-29.9l148.76-28.78c-.37-64.29-47.09-101.66-103.9-101.66-62.04,0-107.64,43.36-107.64,103.53s45.23,103.53,114.74,103.53c36.25,0,64.29-11.21,82.97-32.52l-31.02-33.64c-13.83,13.08-29.15,19.44-50.46,19.44ZM1607.88,761.12c24.29,0,41.86,13.83,47.47,34.39l-97.92,19.06c1.12-34.01,21.3-53.45,50.46-53.45Z"/>
  <path class="cls-1" d="M1378.41,717.01c-30.27,0-56.44,12.33-72.51,32.89-14.2-22.05-38.12-32.89-66.16-32.89-25.79,0-48.21,8.97-63.17,26.16v-8.62h.07l.34-71.62h.02v-115.12c0-61.3-35.65-88.95-82.82-88.95-27.11,0-50.51,9.34-66.11,26.54v-23.55h-55.34v201.08h57.94v-99.42c0-37,20.06-54.2,47.91-54.2,25.62,0,40.48,14.95,40.48,47.47l.93,106.15h.06l.82,71.17v186.98h58.31v-100.91c0-35.88,18.31-52.7,44.1-52.7,24.29,0,38.12,14.95,38.12,47.47v106.15h58.31v-100.91c0-35.88,18.31-52.7,44.48-52.7,23.55,0,38.12,14.95,38.12,47.47v106.15h58.31v-115.12c0-61.3-34.38-88.95-82.23-88.95Z"/>
  <path class="cls-1" d="M918.37,836.09l-42.42-13.62c.04,58.11,47.11,105.23,105.21,105.32l-13.68-42.58c-7.49-23.33-25.78-41.62-49.12-49.12Z"/>
  <path class="cls-1" d="M981.35,717.01c-.05,0-.11,0-.16,0l13.68,42.59c7.49,23.33,25.78,41.62,49.12,49.12l42.62,13.69-42.62,13.69c-23.33,7.49-41.62,25.78-49.12,49.12l-13.68,42.59c.05,0,.11,0,.16,0,58.21,0,105.39-47.18,105.39-105.39s-47.18-105.39-105.39-105.39Z"/>
  <path class="cls-1" d="M967.49,759.6l13.68-42.58c-58.1.1-105.17,47.21-105.21,105.32l42.42-13.62c23.33-7.49,41.62-25.78,49.12-49.12Z"/>
  <path class="cls-1" d="M981.18,927.82v-.03s0,0,0,0v.03Z"/>
  <path class="cls-1" d="M981.18,716.98v.03s0,0,.01,0v-.03Z"/>
  <path class="cls-1" d="M875.96,822.34l-.2.06.2.06s0-.04,0-.06,0-.04,0-.06Z"/>
</svg>