<?xml version="1.0" encoding="UTF-8"?>
<svg id="Calque_1" data-name="Calque 1" xmlns="http://www.w3.org/2000/svg" viewBox="0 0 2182.28 1674.06">
  <defs>
    <style>
      .cls-1 {
        fill: none;
        stroke: #f44f27;
        stroke-miterlimit: 10;
        stroke-width: 15px;
      }
    </style>
  </defs>
  <path class="cls-1" d="M1203.13,942.94c-91.95-72.48-212.37-124.08-349.5-138.22-136.75-14.14-290.21,9.17-439.51,86.51-9.45-218.17,57.82-460.46,208.41-679.2,241.23-25.91,474.13,13.92,675,102.94,201.24,89.01,370.46,227.21,493.02,398.01-244.41,3.72-450.05,96.26-587.41,229.97Z"/>
  <path class="cls-1" d="M482.31,883.69c-3.22-204.05,63.2-427.59,203.99-629.71,222.88-14.66,436.25,28.33,620.23,114.52,184.29,86.19,339.19,215.59,452.42,373.74-228.04,10.84-419.78,100.39-550.07,227.73-83.46-69.7-192.89-121.37-318.64-140.56-125.43-19.2-267.16-5.92-407.93,54.29Z"/>
  <path class="cls-1" d="M548.34,882.4c2.05-190.73,66.98-396.89,198.03-583.66,411.52-10.03,774.32,181.01,981.2,472.96-212.2,17.34-390.62,104.04-513.99,225.26-149.18-133.37-400.32-204.94-665.24-114.56Z"/>
  <path class="cls-1" d="M611.84,886.93c6.47-178.17,69.39-368.25,190.79-540.85,376.28,6.26,703.73,186.73,893.76,455.28-196.9,23.23-362.56,107.2-479.17,222.52-134.32-126.94-359.9-201.3-605.38-136.95Z"/>
  <path class="cls-1" d="M672.47,896.86c10.13-166.33,70.6-341.53,182.54-501.08,342.17,19.73,636.49,189.35,810.4,435.44-182.15,28.52-335.59,109.85-445.59,219.48-120.32-120.16-321.82-195.92-547.34-153.84Z"/>
  <path class="cls-1" d="M729.93,911.76c13.13-155.17,70.82-316.62,173.51-464.16,309.31,30.55,572.68,189.12,731.2,413.68-167.94,33.2-309.72,111.97-413.27,216.1-107.22-113.06-286.1-188.95-491.45-165.62Z"/>
  <path class="cls-1" d="M783.91,931.21c15.55-144.63,70.19-293.4,163.92-429.89,277.82,38.9,512.35,186.25,656.25,390.21-154.28,37.3-284.92,113.55-382.18,212.36-94.99-105.7-252.74-180.55-437.98-172.68Z"/>
  <path class="cls-1" d="M834.17,954.79c17.45-134.68,68.88-271.75,153.97-398.06,247.82,44.98,455.54,181,585.58,365.26-141.17,40.8-261.19,114.58-352.33,208.22-83.66-98.13-221.76-170.87-387.22-175.42Z"/>
  <path class="cls-1" d="M880.47,982.07c18.92-125.27,67.03-251.54,143.85-368.49,219.39,48.96,402.31,173.59,519.25,339.06-128.62,43.73-238.53,115.05-323.72,203.65-73.23-90.38-193.17-160.07-339.39-174.22Z"/>
  <path class="cls-1" d="M922.62,1012.63c20-116.36,64.76-232.65,133.71-340.98,192.61,51.02,352.68,164.26,457.31,311.82-116.63,46.08-216.93,114.92-296.32,198.63-63.68-82.5-166.97-148.3-294.7-169.47Z"/>
  <path class="cls-1" d="M960.44,1046.05c20.77-107.9,62.18-214.96,123.69-315.32,167.57,51.35,306.66,153.24,399.78,283.77-105.2,47.87-196.37,114.21-270.13,193.12-55.03-74.55-143.15-135.71-253.34-161.58Z"/>
  <path class="cls-1" d="M993.78,1081.89c21.26-99.84,59.4-198.35,113.92-291.32,144.32,50.13,264.29,140.78,346.69,255.15-94.33,49.1-176.85,112.87-245.15,187.09-47.26-66.57-121.7-122.48-215.46-150.92Z"/>
  <path class="cls-1" d="M1022.53,1119.75c21.52-92.14,56.49-182.7,104.51-268.78,122.93,47.54,225.55,127.09,298.06,226.16-84.03,49.77-158.37,110.91-221.37,180.51-40.37-58.6-102.6-108.73-181.2-137.89Z"/>
  <path class="cls-1" d="M1046.58,1159.19c21.58-84.76,53.53-167.89,95.54-247.5,103.43,43.77,190.46,112.43,253.88,197.04-74.3,49.9-140.91,108.31-198.77,173.34-34.36-50.7-85.83-94.64-150.65-122.88Z"/>
  <path class="cls-1" d="M1065.89,1199.79c21.47-77.65,50.57-153.79,87.09-227.29,85.86,38.99,158.99,97.02,214.15,168.02-65.15,49.49-124.47,105.05-177.34,165.56-29.21-42.9-71.37-80.35-123.9-106.28Z"/>
  <path class="cls-1" d="M1080.4,1241.12c21.22-70.77,47.65-140.28,79.19-207.95,70.25,33.4,131.12,81.1,178.87,139.31-56.58,48.54-109.04,101.11-157.07,157.14-24.92-35.26-59.17-66.02-100.98-88.49Z"/>
  <path class="cls-1" d="M1090.12,1282.77c20.83-64.07,44.81-127.25,71.88-189.28,56.61,27.16,106.83,64.9,148.01,111.14-48.58,47.07-94.61,96.5-137.96,148.04-21.47-27.82-49.19-51.81-81.93-69.89Z"/>
  <path class="cls-1" d="M1095.07,1324.31c20.33-57.51,42.05-114.56,65.16-171.08,44.94,20.48,86.09,48.66,121.54,83.74-41.18,45.08-81.18,91.17-119.97,138.23-18.84-20.63-41.4-37.87-66.73-50.88Z"/>
  <path class="cls-1" d="M1095.29,1365.32c19.7-51.05,39.38-102.1,59.04-153.16,35.24,13.51,68.83,32.62,99.42,57.32-34.36,42.57-68.73,85.14-103.11,127.69-17.04-13.73-35.74-24.35-55.35-31.85Z"/>
</svg>