<svg width="447" height="502" viewBox="0 0 447 502" fill="none" xmlns="http://www.w3.org/2000/svg">
<path fill-rule="evenodd" clip-rule="evenodd" d="M174.407 0.124835C179.081 -0.0420857 187.761 1.12636 193.603 2.62864C199.612 4.13093 209.795 7.97012 216.138 11.3085C223.816 15.3146 232.496 21.9914 241.343 30.8382C248.854 38.1827 258.035 48.5318 268.718 63.3877L280.903 57.7124C287.58 54.5409 298.596 50.3679 305.44 48.5318C312.451 46.5288 322.967 44.5257 328.809 44.025C334.985 43.5242 344.5 43.858 350.509 45.0265C356.518 46.028 365.865 48.8656 371.374 51.0356C376.882 53.3725 385.228 58.0463 389.735 61.3847C394.743 65.2239 401.753 73.236 407.095 80.9144C412.436 89.2604 417.444 99.2756 420.114 107.622C423.286 117.303 424.621 125.649 425.122 138.001C425.456 147.516 426.124 156.863 426.624 158.866C427.292 161.704 429.796 163.373 446.488 168.882L437.307 172.053C432.3 173.722 428.127 175.225 428.127 175.225C428.127 175.058 427.125 178.563 425.623 182.903C424.288 187.076 422.618 190.915 421.951 191.249C421.283 191.583 420.615 191.082 420.615 190.247C420.615 189.246 420.115 188.912 419.447 189.246C418.779 189.58 417.611 192.417 416.776 195.422C416.108 198.593 413.605 205.938 411.101 211.947C408.764 217.956 403.923 227.638 400.418 233.647C394.91 242.66 393.741 246.333 393.073 255.68C392.573 263.025 390.903 269.868 388.233 274.876C386.063 279.216 379.887 287.228 374.545 292.403C367.034 299.58 364.196 303.753 362.527 309.929C361.358 314.269 357.185 323.116 353.346 329.459C349.507 335.802 341.161 345.984 334.651 351.993C327.307 359.004 320.63 363.845 316.29 365.013C312.618 366.182 307.61 367.183 305.106 367.183C302.602 367.183 300.432 367.851 300.432 368.852C300.432 369.687 302.102 371.857 304.272 373.693C306.609 375.696 309.446 382.039 312.284 391.554C316.29 405.742 316.791 406.41 322.299 408.246C326.639 409.581 328.976 411.751 331.647 417.426C333.983 421.766 336.153 431.114 337.489 440.628C338.49 449.308 340.326 457.487 341.161 458.823C342.163 460.158 343.331 465.332 343.665 470.507C343.999 475.682 345 480.355 346.169 481.023C347.17 481.691 350.676 482.191 353.847 482.024C357.185 482.024 364.697 482.859 370.539 483.861C376.548 485.029 382.724 486.197 384.393 486.531C385.896 487.032 387.231 488.534 387.231 489.87C387.231 491.372 384.56 493.041 380.22 494.21C376.214 495.211 367.535 496.547 360.524 497.381C353.68 498.216 336.487 499.384 322.132 500.219C307.944 500.887 271.889 501.554 242.01 501.554C212.298 501.554 175.075 500.887 159.385 500.219C143.861 499.551 124.331 498.216 115.985 497.214C107.806 496.213 99.4601 495.211 97.624 495.044C95.7879 494.711 92.6164 493.709 90.6133 492.541C88.4434 491.539 86.7742 489.87 86.7742 489.035C86.7742 488.034 88.9441 486.865 91.4479 486.364C93.9517 485.864 97.9578 485.029 100.128 484.695C102.465 484.361 106.805 483.694 109.809 483.193C114.65 482.358 115.318 481.524 116.152 476.015C116.653 472.677 117.821 468.003 118.656 465.666C119.657 463.329 123.831 458.823 128.17 455.651C132.343 452.48 140.022 447.639 145.196 444.968C150.204 442.297 157.382 438.124 161.054 435.621C164.726 433.117 173.406 424.938 180.25 417.426C189.931 407.077 193.77 403.739 197.109 403.906C199.446 403.906 201.949 403.238 202.45 402.57C202.951 401.903 202.283 398.063 201.115 393.89C199.779 389.717 198.778 382.206 198.778 377.198C198.778 372.191 197.276 362.676 195.439 356.333C193.603 349.823 191.934 344.482 191.934 344.148C191.934 343.981 188.095 342.145 183.254 340.142C178.414 337.972 169.734 332.798 164.058 328.458C154.878 321.28 153.375 320.779 152.207 323.283C150.872 325.787 150.538 325.286 149.703 320.779C148.869 316.773 147.366 314.937 143.527 313.769C140.189 312.656 138.798 311.265 139.354 309.596C139.855 308.093 135.515 301.416 128.337 293.237C121.827 285.726 112.313 273.207 106.972 265.362C101.797 257.516 93.9517 243.996 89.7787 235.316C82.935 221.628 80.5981 218.457 72.2521 212.114C66.9106 208.108 58.5646 199.762 53.39 193.419C48.3824 187.076 40.5372 173.889 35.8634 164.375C28.352 148.517 26.8497 146.514 20.1729 143.176C15.9998 141.006 11.1592 137.167 9.32302 134.496C6.98614 131.491 5.65077 126.484 5.31693 120.308C4.98309 115.133 3.64772 107.956 2.31235 104.283C0.976989 100.611 0.142391 94.268 0.309311 90.095C0.810073 83.2513 1.47775 82.2498 7.15305 79.579C11.8268 77.4091 13.1622 75.9068 12.4945 73.7368C11.9937 72.2345 10.4915 66.7261 9.15609 61.7185C7.82073 56.7109 6.48537 49.3664 5.98461 45.3603C5.48385 41.5211 5.81768 35.1782 6.65229 31.1721C7.48689 27.166 9.82378 22.826 11.9938 21.1568C14.1637 19.4876 17.836 18.1523 20.0059 18.1523C22.3428 18.1523 25.5143 19.4876 27.0166 21.1568C28.352 22.826 30.6889 25.9975 31.8573 28.3344C33.0257 30.6713 36.0303 40.3527 42.8741 67.5607L45.8786 58.3801C47.5478 53.3725 51.387 44.3588 54.3916 38.3496C57.2292 32.3405 62.0699 24.996 65.0745 21.9914C68.0791 18.8199 71.9182 16.65 74.422 16.65C76.592 16.65 80.4312 18.4861 82.6012 20.823C85.9396 23.9945 86.7742 26.6652 86.7742 32.5074C86.7742 37.0143 84.6042 45.8611 81.2658 54.5409C78.0943 62.5531 74.7559 73.0691 73.7544 77.9098C72.5859 82.7505 71.7513 88.5927 71.7513 90.9296C71.7513 93.2665 72.5859 95.1026 73.4205 95.1026C74.4221 95.1026 76.7589 89.9281 78.762 83.752C80.5981 77.576 85.1049 66.8931 88.6103 60.0493C92.1156 53.2056 99.1263 42.8565 103.967 37.0143C108.808 31.339 116.82 23.6607 121.827 19.8215C127.002 15.9823 134.847 10.9747 139.354 8.63779C144.028 6.30091 151.873 3.46328 156.881 2.29483C162.055 1.12639 169.901 0.124835 174.407 0.124835ZM28.185 242.994C28.5189 244.83 29.6873 247.167 30.6889 248.336C31.6904 249.504 34.0273 250.506 35.8634 250.339C38.5341 250.339 38.0334 251.006 33.8603 253.677C30.8558 255.513 28.352 258.351 28.352 259.853C28.352 262.19 27.6843 261.856 26.0151 258.685C24.6797 256.348 21.5082 253.677 14.1637 250.673L19.6721 249.671C23.5113 249.003 25.0135 247.835 24.8466 245.498C24.6797 243.829 25.1805 241.993 26.0151 241.325C26.8497 240.49 27.6843 241.325 28.185 242.994Z" fill="#F45B49"/>
<path d="M414.438 167.88C417.776 167.212 419.279 165.543 420.113 161.871C420.614 159.2 421.783 157.364 422.784 157.865C423.619 158.366 424.286 160.202 424.119 162.038C423.953 164.041 425.789 166.044 434.802 169.883L429.461 170.885C425.455 171.552 423.952 172.721 423.952 175.225C423.952 177.061 423.285 178.897 422.283 179.398C421.449 179.898 420.28 178.396 419.779 176.059C419.279 173.388 417.276 171.385 409.764 168.882L414.438 167.88Z" fill="#EFEDDB"/>
<path d="M275.393 384.71C282.07 384.71 286.911 383.374 292.92 380.37C299.096 377.031 301.767 376.364 303.269 377.866C304.604 378.868 307.776 388.382 310.613 398.898C313.451 409.414 315.955 419.596 316.122 421.265C316.122 423.268 314.62 425.438 312.116 426.774C309.445 428.109 305.439 428.61 301.266 427.942C297.594 427.275 293.087 426.106 291.251 425.105C289.415 424.27 285.242 421.098 282.07 418.428C278.899 415.59 273.223 411.918 269.551 410.249C265.879 408.746 260.871 407.244 258.367 407.244C254.862 407.244 253.193 406.076 251.857 402.57C250.856 400.066 249.521 394.391 247.851 381.705L257.032 383.208C262.04 384.042 270.386 384.71 275.393 384.71Z" fill="#EFEDDB"/>
<path d="M205.12 397.563C204.118 395.059 202.95 389.55 202.449 385.044C201.447 378.033 201.781 377.198 204.619 377.365C206.288 377.365 213.299 378.367 219.976 379.535C229.991 381.371 233.329 381.204 238.337 379.535C241.675 378.2 244.68 377.198 245.014 377.198C245.181 377.198 245.014 380.37 244.68 384.209C244.346 388.215 245.014 394.725 246.349 398.898C247.684 403.071 248.686 406.576 248.686 406.743C248.686 407.077 247.017 407.244 245.014 407.244C242.844 407.244 239.672 408.246 237.836 409.581C234.832 411.584 233.496 411.417 225.317 407.077C220.309 404.406 214.133 402.236 211.63 402.236C208.124 402.236 206.455 401.068 205.12 397.563Z" fill="#EFEDDB"/>
<path d="M203.284 412.085C192.1 411.751 190.764 411.584 196.106 410.582C199.778 409.915 205.62 409.247 209.126 409.08C213.966 408.913 216.637 410.082 221.645 414.589C224.983 417.76 227.32 420.932 226.652 421.766C225.985 422.434 223.481 420.598 221.144 417.593C217.138 412.419 216.637 412.252 203.284 412.085Z" fill="#EFEDDB"/>
<path d="M248.352 416.759C240.006 417.593 236.501 417.426 237.335 416.258C237.836 415.256 243.678 414.255 250.188 414.255C261.539 413.921 262.373 414.255 268.383 419.596C272.722 423.602 275.727 425.105 278.398 424.604C280.401 424.27 282.07 424.771 282.07 425.605C282.07 426.44 280.234 427.608 277.897 428.109C275.393 428.61 271.721 431.948 268.716 435.954C266.046 439.96 264.376 443.8 265.044 444.634C265.712 445.469 271.888 445.803 278.732 445.302C285.575 444.801 293.087 444.968 295.424 445.803C297.761 446.47 300.932 449.141 302.601 451.478C304.104 453.815 305.439 456.986 305.439 458.489C305.439 460.325 303.436 458.489 296.258 446.804L270.386 447.639C247.017 448.473 243.845 448.14 237.001 445.135C231.493 442.798 226.986 441.964 219.976 442.464C213.633 442.909 211.017 442.576 212.13 441.463C213.132 440.628 217.639 439.794 222.479 439.794C227.988 439.794 234.498 441.296 240.674 443.967C249.02 447.639 250.856 447.806 254.862 445.97C259.202 443.967 259.369 443.633 256.698 440.962C255.196 439.46 250.689 436.455 246.683 434.452C242.677 432.282 236.334 430.613 232.495 430.613C228.322 430.613 225.651 429.945 226.152 428.944C226.652 428.109 228.655 427.274 230.825 427.274C232.828 427.274 237.168 427.942 240.34 428.944C243.511 429.778 249.521 432.783 253.694 435.454C258.367 438.625 261.873 439.96 262.874 438.959C264.043 437.957 263.709 436.455 262.04 434.619C260.704 433.117 256.698 430.446 253.36 428.777C249.854 426.941 243.678 425.105 239.505 424.27C235.499 423.602 232.662 422.601 233.329 421.933C233.997 421.265 238.337 421.599 242.844 422.434C247.517 423.435 254.528 426.44 266.213 434.118L272.889 427.108L260.37 415.59L248.352 416.759Z" fill="#EFEDDB"/>
<path d="M209.96 425.939C206.121 423.435 198.777 420.598 193.769 419.429L193.181 419.309C184.751 417.593 184.733 417.589 191.098 417.426C194.771 417.426 201.447 418.929 206.121 421.265C210.795 423.268 215.636 426.273 216.971 427.942C218.306 429.445 218.974 430.78 218.306 430.613C217.472 430.613 213.799 428.61 209.96 425.939Z" fill="#EFEDDB"/>
<path d="M184.421 425.438C179.247 425.438 178.412 425.105 181.083 423.936C182.919 423.101 184.421 422.434 184.588 422.434C184.588 422.273 188.165 423.2 192.466 424.316L192.934 424.437C197.441 425.605 203.617 428.276 206.622 430.279C209.46 432.282 211.796 434.285 211.63 434.786C211.296 435.12 206.622 433.284 201.114 430.446C195.271 427.608 188.261 425.438 184.421 425.438Z" fill="#EFEDDB"/>
<path d="M172.737 437.791C165.559 438.458 164.725 438.291 167.563 436.455C169.232 435.12 173.739 434.452 177.578 434.619C181.25 434.953 188.595 436.789 193.602 438.959C198.61 441.129 201.614 443.299 200.279 443.633C198.944 443.967 194.103 442.631 189.429 440.628C183.086 437.79 179.08 437.123 172.737 437.791Z" fill="#EFEDDB"/>
<path d="M326.137 453.481C327.305 450.643 329.475 445.97 330.644 443.299C331.979 440.461 333.148 439.46 333.649 440.795C333.982 442.13 332.48 446.637 330.31 451.144C328.14 455.484 325.803 458.989 325.136 458.989C324.301 458.989 324.802 456.486 326.137 453.481Z" fill="#EFEDDB"/>
<path d="M122.16 466.334C121.993 466 122.995 464.498 124.664 462.996C127.001 460.826 130.339 460.492 147.532 461.493C158.716 462.161 167.896 462.829 168.23 462.996C168.397 463.162 168.063 464.164 167.396 465.332C166.394 467.002 160.385 467.502 144.361 467.335C132.342 467.169 122.494 466.835 122.16 466.334Z" fill="#EFEDDB"/>
<path d="M305.439 465.499C317.791 464.498 328.307 463.329 328.641 462.996C328.975 462.662 331.479 462.328 334.149 462.328C337.154 462.328 338.823 463.162 338.823 464.832C338.823 466.668 336.152 467.502 328.307 468.17C322.632 468.671 308.11 469.839 296.258 470.674C284.24 471.508 252.024 472.176 224.482 472.176C196.941 472.176 173.071 471.675 171.235 471.008C168.731 470.006 168.564 469.505 170.4 467.669C172.236 466 179.247 465.833 202.783 466.668C219.308 467.335 244.012 467.836 257.867 467.669C271.554 467.502 293.087 466.668 305.439 465.499Z" fill="#EFEDDB"/>
<path d="M119.823 484.027C119.322 480.856 119.489 476.516 119.823 474.346C120.491 471.342 121.492 470.841 124.998 471.342C127.335 471.675 136.682 472.176 161.887 472.343V490.704L120.491 489.87L119.823 484.027Z" fill="#EFEDDB"/>
<path d="M298.762 474.847C310.28 474.179 323.633 473.178 328.474 472.677C333.482 472.009 338.155 471.675 339.157 472.009C339.991 472.343 340.826 475.848 340.659 480.021C340.492 487.032 340.158 487.366 334.149 489.035C330.811 489.87 321.63 491.372 313.785 492.207C305.94 493.208 292.586 494.21 284.073 494.877C270.386 495.545 268.549 495.378 267.882 492.707C267.381 491.205 265.378 487.032 260.37 477.351L269.05 476.516C273.891 476.182 287.245 475.348 298.762 474.847Z" fill="#EFEDDB"/>
<path d="M166.394 489.035C165.726 486.197 165.559 482.358 165.893 480.188L166.561 476.349L208.959 476.85C237.335 477.351 252.358 478.185 255.029 479.521C257.032 480.689 259.87 484.361 261.205 487.7C262.54 491.205 263.709 494.377 263.709 494.877C263.709 495.378 243.678 495.712 218.974 495.712C194.437 495.712 172.904 495.211 171.068 494.877C169.065 494.377 167.229 491.873 166.394 489.035Z" fill="#EFEDDB"/>
<path d="M30.3538 90.5963C31.5223 89.4278 34.6938 87.7586 37.5314 86.924C40.3691 86.0894 46.2113 85.2548 50.8851 85.2548C56.2265 85.0879 60.3995 85.9225 65.9079 90.4293L62.5695 89.2609C60.7334 88.5932 56.5604 87.7586 53.3889 87.2578C50.2174 86.924 44.2082 87.5917 40.0352 88.7601C34.6938 90.4293 32.0231 92.2655 31.0215 95.1031C30.02 97.9408 30.1869 100.945 31.5223 104.284C32.5238 106.954 35.0276 111.127 37.0307 113.464C39.7014 116.803 41.8714 117.637 48.3813 117.637C52.8881 117.637 57.0611 118.305 57.8957 118.973C58.5634 119.807 54.7242 120.141 49.2159 119.807C40.3691 119.307 38.8668 119.64 36.363 122.979C34.193 125.816 31.5223 126.818 27.1824 126.818C23.1763 126.985 19.8378 125.816 18.3356 124.147C15.9987 121.477 16.1656 121.31 19.1702 122.645C21.0063 123.313 24.3447 124.314 26.6816 124.648C29.5192 125.149 31.8561 124.314 33.6923 121.977C36.5299 118.639 36.5299 118.138 32.5238 111.294C30.3538 107.455 28.3508 101.613 28.3508 98.4415C28.1839 95.27 29.1854 91.5978 30.3538 90.5963Z" fill="#F45B49"/>
<path d="M401.752 225.969C405.591 218.791 410.265 207.774 412.435 201.432C414.438 195.255 416.274 190.248 416.775 190.248C417.109 190.248 416.942 192.752 416.441 195.589C415.94 198.594 413.437 205.938 411.1 211.948C408.763 217.957 403.922 227.638 400.25 233.647C394.908 242.661 393.573 246.333 393.072 255.681C392.571 263.025 390.902 269.869 388.232 274.877C386.062 279.383 379.885 287.229 374.544 292.403C367.033 299.748 364.195 303.754 362.526 309.93C361.357 314.27 358.52 321.114 356.183 324.953C354.013 328.959 351.843 331.963 351.342 331.63C350.841 331.463 352.344 327.457 354.514 322.95C356.684 318.276 359.02 312.601 359.521 309.93C360.022 307.426 359.855 305.423 359.187 305.423C358.52 305.423 357.184 306.091 356.35 306.925C355.348 307.76 345.5 313.101 334.316 318.61C322.966 324.285 312.783 328.792 311.782 328.792C310.613 328.625 318.292 324.285 328.808 318.944C339.324 313.769 352.511 306.258 358.019 302.585C363.527 298.746 371.039 292.403 374.878 288.397C378.55 284.558 383.558 278.215 385.728 274.543C389.066 269.034 389.734 265.696 389.734 254.512C389.734 242.995 389.066 239.656 384.559 230.309C381.555 224.133 375.879 215.954 371.206 211.447C366.699 206.94 360.69 202.099 358.019 200.597C355.348 199.262 354.013 197.759 355.181 197.425C356.183 197.258 361.19 200.096 366.031 203.935C371.039 207.941 377.382 214.117 380.219 217.79C383.057 221.462 386.562 227.972 388.065 232.312C389.567 236.986 391.403 240.157 392.738 239.823C393.74 239.489 397.913 233.313 401.752 225.969Z" fill="#F45B49"/>
<path d="M142.694 10.8081C146.367 9.13885 152.71 6.80195 156.883 5.63351C161.056 4.46506 168.4 3.46356 173.241 3.46356C177.915 3.29664 185.927 4.13124 190.767 5.13277C195.441 6.13429 202.786 8.63812 206.959 10.4742C211.132 12.3104 218.643 16.6503 223.651 20.1556C228.658 23.494 237.004 30.6716 242.012 36.0131C247.187 41.5215 254.865 50.5352 259.205 56.2105C263.545 62.0527 267.384 66.7264 267.885 66.7264C268.386 66.7264 275.229 63.7219 283.408 60.2166C291.421 56.7112 302.437 52.5382 307.946 51.2029C313.454 49.7006 322.468 48.1983 327.976 47.5306C333.485 47.0298 343.166 47.3636 349.676 48.1982C356.853 49.3667 366.201 52.3713 373.879 56.0435C382.058 59.8827 389.236 65.0572 394.744 70.7325C399.418 75.5732 405.594 84.2531 408.766 90.2623C411.937 96.1045 415.776 105.452 417.279 110.96C418.948 116.469 420.784 125.149 421.452 130.156C422.286 137.167 421.786 142.175 415.609 163.54L407.263 165.21C402.757 166.044 398.584 167.546 398.083 168.548C397.582 169.383 401.421 171.386 406.429 172.721C413.44 174.557 415.776 176.059 416.611 178.897C417.112 181.067 415.276 189.58 412.271 198.594C409.433 207.274 403.758 220.46 399.752 227.805C393.743 238.822 392.241 240.491 391.239 237.82C390.571 235.984 388.902 231.477 387.233 227.805C385.731 224.133 381.057 217.456 377.051 212.949C373.045 208.442 366.702 202.6 363.029 199.929C359.357 197.258 355.852 195.255 355.184 195.255C354.35 195.255 353.849 195.923 353.849 196.924C353.849 197.759 358.022 201.598 363.029 205.271C368.037 208.943 374.547 215.453 377.552 219.793C380.556 224.299 384.395 231.477 386.065 236.151C387.901 240.992 389.236 248.67 389.236 254.512C389.236 262.357 388.235 266.697 384.228 274.543C381.558 280.051 376.383 287.062 372.878 290.233C369.206 293.405 361.026 299.414 354.683 303.587C348.174 307.76 334.319 315.271 323.803 320.279C306.11 328.458 304.273 329.626 301.269 336.136C299.433 339.808 294.258 346.986 289.584 351.994C284.911 357.168 277.566 362.677 272.892 365.014C268.386 367.017 262.209 368.853 259.539 368.853C256.701 368.853 253.196 367.517 251.193 365.514C249.357 363.678 248.188 361.842 248.689 361.508C249.19 361.174 253.53 359.171 258.37 357.001C263.211 354.831 267.217 352.661 267.217 352.161C267.217 351.66 266.716 350.825 266.216 349.991C265.715 349.323 262.209 350.491 258.37 352.494C253.363 355.165 248.188 356.334 241.511 356.334C232.998 356.334 231.329 355.833 228.325 352.161C226.488 349.824 225.32 346.151 225.654 343.815C225.988 340.476 227.156 339.475 231.162 339.141C233.833 338.974 240.176 337.972 245.017 337.138C250.859 335.969 253.697 334.634 253.697 332.965C253.697 331.629 253.363 330.461 252.862 330.461C252.361 330.461 250.191 331.296 247.854 332.13C245.517 332.965 240.176 334.3 235.836 334.801C228.325 335.802 227.49 335.469 223.317 330.628C220.312 327.289 218.643 323.617 218.643 319.945C218.643 317.107 219.478 311.933 220.479 308.761C221.648 305.59 222.816 302.585 223.15 302.084C223.484 301.584 225.487 303.42 231.162 310.597L242.847 308.761C249.357 307.76 256.2 305.924 258.37 304.922C260.373 303.754 262.043 302.084 262.043 301.25C262.043 300.248 260.707 298.245 259.038 296.409C257.536 294.74 256.033 290.4 255.867 286.895C255.533 282.054 256.2 280.051 258.37 278.882C259.873 278.048 263.545 277.547 266.549 277.547C270.222 277.714 273.727 279.717 277.733 283.723C280.905 286.895 283.408 289.899 283.075 290.4C282.741 290.901 285.578 291.068 289.418 291.068C293.09 290.901 301.937 289.065 308.78 287.062C315.624 284.892 322.468 282.388 323.803 281.219C325.139 280.218 328.477 278.382 331.148 277.046C333.818 275.711 339.16 271.705 342.832 268.2C346.671 264.861 349.175 262.024 348.507 262.024C347.673 262.024 348.007 260.02 349.008 257.35C350.344 253.844 350.177 251.341 348.174 246.5C346.504 242.828 342.331 237.987 337.658 234.482C333.151 231.31 327.976 228.306 325.973 227.805C323.803 227.304 320.966 228.139 319.463 229.474C318.128 230.809 315.791 231.978 314.456 231.978C313.12 231.978 308.947 234.148 305.108 236.818C301.102 239.489 295.761 243.829 288.583 251.174L281.572 248.002C277.733 246.166 269.387 244.33 262.877 243.829C252.695 243.161 250.191 243.662 243.681 247.335C239.508 249.671 234.167 254.512 231.83 258.017C229.326 261.69 226.655 267.532 225.487 271.204C224.485 274.876 223.651 280.719 223.651 284.057C223.651 287.562 221.314 296.075 218.643 302.919C215.972 309.763 213.636 317.107 213.636 319.11C213.636 321.28 215.472 325.954 217.809 329.626C219.979 333.299 221.982 337.639 221.982 339.141C221.982 341.144 220.646 342.145 218.309 342.312C216.139 342.479 210.798 342.479 206.124 342.312C201.617 341.978 194.106 340.643 189.432 338.974C184.925 337.305 178.082 334.133 174.409 331.796C170.737 329.626 164.895 325.119 154.713 316.273L167.732 310.931L161.556 309.095C156.549 307.426 154.88 306.091 154.045 301.917C153.21 299.08 152.209 296.409 151.541 296.075C150.707 295.741 149.872 297.744 149.371 300.415C148.87 303.086 147.869 305.757 146.867 306.257C145.866 306.758 140.191 301.584 134.014 294.907C127.672 288.23 117.656 275.21 111.48 266.03C105.471 257.016 97.292 243.495 93.6197 236.151C89.9475 228.806 84.9398 217.122 82.603 210.278C80.2661 203.434 76.9277 190.081 75.0915 180.566C73.0885 170.551 71.7531 156.53 71.7531 146.348C71.7531 137 72.9216 122.478 74.2569 114.299C75.7592 105.953 79.2645 92.4322 81.9353 84.2531C84.7729 75.9071 89.7805 64.3896 93.1189 58.3804C96.4574 52.3713 102.633 43.3576 106.806 38.3499C110.979 33.3423 119.325 25.664 125.335 21.491C131.177 17.3179 139.022 12.4773 142.694 10.8081Z" fill="#FFBDF0"/>
<path d="M61.2371 33.0085C64.5755 27.6671 68.4147 22.6594 69.917 21.6579C71.4193 20.8233 73.9231 19.9887 75.5923 19.9887C77.0946 19.9887 79.5984 21.6579 80.9337 23.661C82.2691 25.8309 83.4376 30.1708 83.4376 33.3423C83.4376 36.5138 81.4345 44.3591 79.0976 50.869C76.5938 57.3789 72.9216 68.2287 70.9185 75.0725C68.9155 81.9162 66.5786 87.4246 65.744 87.2577C64.9094 87.0908 61.7379 85.9223 58.7333 84.7539C54.3934 82.9178 51.5557 82.9178 42.8759 84.7539C37.2006 85.9223 31.3583 88.0923 30.023 89.4277C28.5207 90.9299 27.5192 94.9361 27.5192 98.9421C27.5192 103.449 28.8545 107.789 31.3583 111.294C33.3614 114.299 34.6967 117.971 34.196 119.306C33.6952 120.642 31.6922 122.478 29.6891 123.312C27.1297 124.314 24.3477 124.036 21.3431 122.478C18.6724 121.143 13.8317 115.801 10.4933 110.46C6.98794 105.285 3.81644 98.1075 3.31568 94.6022C2.81492 91.0969 3.14876 87.0907 4.15029 85.7554C5.15181 84.42 8.82406 82.7508 12.4963 82.2501C17.337 81.4155 20.5085 81.9162 23.8469 83.9193C26.3507 85.4216 28.8545 86.2561 29.6891 85.7554C30.3568 85.2546 28.8545 82.9177 26.3507 80.7478C23.68 78.5778 20.5085 76.7417 19.1731 76.7417C17.6709 76.7417 16.0016 74.2379 15.0001 70.3987C14.1655 67.0603 12.3294 58.5473 10.8271 51.7036C9.32482 44.6929 8.65714 36.6807 9.1579 33.3423C9.82558 30.1708 11.4948 26.1648 12.9971 24.4956C14.6663 22.8264 17.5039 21.491 19.6739 21.6579C21.6769 21.6579 24.8484 23.661 26.8515 26.1648C28.6876 28.8355 31.0245 33.8431 32.026 37.5153C33.0275 41.1876 35.5313 51.2028 37.3675 59.8827C39.3705 68.5626 41.8743 75.9071 43.0428 76.2409C44.0443 76.5748 45.5466 74.7387 46.0473 72.0679C46.5481 69.5641 48.885 61.8857 51.2219 55.042C53.5588 48.1983 58.0656 38.1831 61.2371 33.0085Z" fill="#FFBDF0"/>
<path d="M33.6952 92.4322C34.8637 91.2638 37.3675 90.0953 39.2036 89.5946C41.0397 89.2607 46.3812 88.76 50.888 88.593C57.5649 88.4261 60.4025 89.2607 65.5771 92.933C71.7531 97.4398 71.92 97.7737 70.9185 105.953C70.2508 110.46 69.0824 120.308 68.2478 127.652C67.0793 137.167 65.744 141.507 63.7409 142.842C61.0702 144.678 61.0702 145.012 63.9078 149.185C65.4101 151.689 67.4132 159.534 68.4147 167.213C69.2493 174.891 71.5862 187.076 73.5892 194.421C75.4254 201.765 77.4284 208.275 77.7623 208.943C78.0961 209.777 77.0946 209.944 75.5923 209.61C73.9231 209.277 68.5816 204.937 63.7409 200.096C58.7333 195.088 52.2234 187.243 49.2188 182.736C46.2143 178.062 41.5405 169.55 38.7028 163.54C36.0321 157.531 33.0275 150.688 31.8591 148.017C30.6907 145.179 27.3522 142.341 22.5115 140.171C18.3385 138.335 13.8317 135.164 12.4963 132.994C11.1609 130.991 9.49174 126.818 8.82406 123.813C7.98946 120.475 8.15638 118.472 9.1579 118.472C10.1594 118.472 12.6632 120.475 15.0001 122.645C17.337 124.982 21.8439 127.319 25.0154 127.986C29.8561 128.821 31.5253 128.32 35.5314 124.648C39.3705 120.642 41.2066 120.141 49.2188 120.475C55.7287 120.809 58.3995 120.308 58.3995 118.806C58.3995 117.47 55.7287 116.803 50.5542 116.803C46.0473 116.803 41.3736 115.968 39.8713 114.8C38.369 113.631 35.8652 110.793 34.3629 108.457C32.8606 106.12 31.6922 101.947 31.5253 99.276C31.5253 96.6052 32.5268 93.4337 33.6952 92.4322Z" fill="#FFBDF0"/>
<path d="M199.447 360.006C198.112 353.496 196.777 347.487 196.777 346.819C196.61 346.318 197.945 345.985 199.614 346.318C201.45 346.652 207.126 346.986 212.467 346.986C218.977 347.153 221.982 347.821 221.982 349.156C221.982 350.325 223.651 352.995 225.654 355.165C227.824 357.168 232.164 359.505 235.335 360.173C240.009 361.174 241.344 362.343 242.346 366.683C243.681 371.857 243.347 372.358 237.505 374.862C233.332 376.698 229.159 377.199 225.32 376.531C222.149 375.863 217.141 375.029 214.47 374.528C211.799 374.194 207.793 373.36 205.79 373.026C202.619 372.358 201.617 370.355 199.447 360.006Z" fill="#FFBDF0"/>
<path d="M262.877 372.692C265.548 372.358 271.223 370.355 275.396 368.185C279.569 366.015 283.575 364.179 284.577 364.179C285.578 364.012 288.75 364.68 291.588 365.848C295.427 367.183 296.929 368.686 296.595 370.856C296.428 372.692 293.257 375.363 288.75 377.366C284.577 379.369 280.07 381.205 278.735 381.372C277.399 381.706 270.222 380.704 262.877 379.202C252.862 377.032 249.524 375.696 249.19 373.36C248.689 371.023 249.357 370.689 253.363 371.857C255.867 372.692 260.206 373.026 262.877 372.692Z" fill="#FFBDF0"/>
<path d="M298.764 247.836C304.272 242.328 310.615 237.654 314.622 236.152C318.294 234.983 322.634 233.815 324.136 233.815C325.805 233.648 329.144 234.649 331.647 235.985C334.318 237.153 338.491 240.825 341.162 243.83C345.001 248.504 345.669 250.507 344.834 255.348C344.333 258.519 341.83 263.36 339.159 265.864C336.655 268.534 332.315 271.706 329.644 273.208C326.974 274.543 319.796 277.882 313.787 280.386C307.778 282.889 299.599 285.56 295.426 286.061C288.248 287.229 287.58 286.896 280.737 280.553C276.731 276.546 271.389 273.208 268.218 272.707C264.879 272.04 260.873 272.707 257.368 274.376C253.529 276.38 251.693 278.55 251.025 282.389C250.357 286.228 251.025 289.9 256.7 301.251L244.849 303.588C233.665 305.591 232.664 305.591 230.661 302.753C229.492 300.917 228.491 296.911 228.491 293.739C228.324 290.568 228.324 284.726 228.491 280.886C228.491 276.88 230.494 270.203 232.664 265.864C234.667 261.357 238.673 256.182 241.343 254.012C244.014 252.009 248.855 249.338 252.026 248.337C255.198 247.335 261.04 247.002 264.879 247.669C268.885 248.17 276.063 250.674 289.583 257.184L298.764 247.836Z" fill="#55243E"/>
<path d="M350.009 313.269C349.842 312.601 351.511 311.099 353.848 309.764C356.185 308.428 358.188 307.427 358.355 307.26C358.522 307.093 358.355 308.762 358.188 310.765C357.854 312.935 356.519 316.44 355.35 318.777C354.015 321.114 352.346 323.284 351.678 323.785C350.843 324.286 350.343 325.287 350.343 326.289C350.509 327.123 349.842 327.958 349.007 327.958C348.173 327.958 346.837 328.626 346.003 329.46C345.335 330.295 345.502 330.462 346.67 329.961C347.839 329.293 348.84 329.293 348.84 329.961C348.673 330.796 345.502 334.969 341.663 339.642C337.824 344.149 333.15 349.324 331.314 350.826C329.477 352.495 325.304 355.667 322.133 358.004C318.962 360.341 313.62 362.677 310.449 363.178C307.277 363.846 303.104 363.679 301.268 363.011C299.432 362.344 296.761 361.676 295.092 361.509C293.59 361.509 291.92 361.008 291.42 360.508C290.919 360.007 294.257 354.665 298.764 348.489C303.438 342.146 307.11 336.304 307.11 335.469C307.11 334.635 315.957 329.627 326.64 324.286C337.49 319.111 347.171 314.771 348.34 314.771C349.341 314.604 350.176 314.104 350.009 313.269Z" fill="#55243E"/>
<path fill-rule="evenodd" clip-rule="evenodd" d="M156.879 43.8589C168.563 44.1927 172.569 45.1943 179.413 48.8665C184.087 51.3703 189.929 55.5433 192.767 58.0471C195.604 60.551 199.944 65.7255 202.782 69.2308C205.452 72.9031 207.622 76.0746 207.789 76.4084C207.789 76.7423 211.962 75.7407 216.97 74.2384C221.978 72.9031 230.324 71.7346 235.331 71.7346C240.339 71.7346 248.351 72.7362 252.858 74.0715C257.532 75.5738 264.709 79.0791 269.049 82.0837C273.389 85.0883 280.4 92.0989 284.573 97.6073C288.746 103.283 293.42 111.629 294.922 116.803C296.424 121.811 297.426 130.658 297.426 136.333C297.259 142.676 295.59 150.688 293.253 156.363C290.916 162.539 288.078 166.712 285.407 168.048C282.236 169.717 280.066 173.556 276.561 183.905C274.057 191.584 270.051 201.098 267.714 205.271C265.377 209.444 261.204 215.787 258.366 219.459C255.529 223.132 250.855 227.972 248.017 230.309C245.18 232.646 238.336 236.318 232.827 238.488C224.315 241.827 220.809 242.327 209.459 241.66C200.278 241.159 193.935 239.824 189.428 237.487C185.756 235.484 179.413 230.977 175.407 227.472C171.401 223.966 166.226 217.289 163.889 212.783C161.719 208.109 159.716 204.27 159.549 203.936C159.549 203.769 154.876 204.77 149.367 206.273C142.69 208.109 135.68 208.776 128.502 208.276C121.658 207.775 114.648 205.939 109.473 203.435C104.966 201.265 98.2895 196.424 94.6172 192.752C90.7781 189.08 86.1043 182.236 83.9343 177.729C81.0967 171.386 80.0951 166.379 80.0951 157.198C80.0951 150.688 81.5974 139.171 83.4336 131.826C85.2697 124.482 88.6081 114.466 90.6111 109.626C93.6157 103.116 94.1165 100.111 92.948 97.6073C91.7796 95.2704 92.2803 91.5982 94.2834 85.0883C95.7857 80.0807 99.1241 72.9031 101.461 69.3977C103.965 65.8924 108.972 60.384 112.645 57.3795C116.317 54.3749 124.663 49.868 131.006 47.5312C140.854 43.8589 144.86 43.3581 156.879 43.8589ZM139.352 231.978C140.353 231.978 142.523 233.481 144.36 235.317C146.196 236.986 151.537 239.156 156.044 239.991C164.056 241.493 164.056 241.66 158.214 241.827C154.709 241.827 149.868 240.992 147.364 239.657C144.693 238.488 141.522 236.151 140.187 234.649C138.851 233.147 138.517 231.978 139.352 231.978Z" fill="#F45B49"/>
<path d="M104.299 97.1058C107.637 96.2712 111.977 95.2697 113.98 94.7689C115.983 94.2681 121.992 93.7674 127.167 93.6004C132.508 93.6004 140.521 94.1012 145.194 95.1027C149.701 96.1043 153.874 97.4396 154.375 98.4411C154.876 99.2757 152.873 103.783 150.202 108.456C147.364 112.963 145.194 117.303 145.194 117.971C145.361 118.805 150.703 124.314 169.398 141.34L152.038 147.015C140.187 150.854 134.178 153.692 133.009 156.029C132.174 157.865 131.674 164.709 132.174 171.886C132.842 180.065 134.344 186.742 136.681 191.082C138.517 194.754 141.522 199.428 146.029 205.437L131.841 204.77C121.325 204.436 115.816 203.267 110.475 200.597C106.636 198.593 100.293 193.753 96.2866 189.747C92.2805 185.574 88.1075 179.231 86.2713 174.39C84.7691 169.716 83.4337 161.537 83.4337 156.029C83.4337 150.52 84.6021 141.34 85.9375 135.498C87.2729 129.822 90.6113 119.139 93.4489 111.795C98.1227 99.2757 98.7904 98.2742 104.299 97.1058Z" fill="#EFEDDB"/>
<path d="M176.408 142.675C183.419 129.155 186.09 125.816 189.762 124.815C192.433 124.147 201.613 123.98 210.293 124.314C218.973 124.648 230.157 126.15 234.831 127.485C239.671 128.988 243.677 130.49 243.677 130.991C243.677 131.491 240.673 135.831 237.001 140.505C233.328 145.346 230.324 150.02 230.324 151.021C230.324 152.023 234.831 157.865 240.339 164.375C245.847 170.885 250.354 176.393 250.354 176.894C250.354 177.395 242.342 179.398 232.494 181.401C222.479 183.571 214.299 185.407 213.966 185.574C213.799 185.908 212.964 189.079 211.963 192.751C211.128 196.424 210.293 203.935 210.293 209.443C210.293 217.289 211.295 221.629 220.309 239.489L208.958 238.487C202.615 237.987 194.77 235.984 190.597 233.814C186.758 231.978 180.915 227.805 177.577 224.8C174.238 221.962 169.565 216.12 167.228 211.947C164.39 207.106 162.721 200.93 162.22 194.42C161.719 187.911 162.554 180.065 164.39 171.886C166.226 164.876 171.401 152.023 176.408 142.675Z" fill="#EFEDDB"/>
<path d="M123.498 54.0401C126.67 52.5378 132.345 50.2009 136.017 48.8655C140.023 47.5302 148.202 46.8625 156.882 47.1963C167.231 47.6971 172.907 48.6986 177.747 51.2024C181.419 53.0385 187.429 57.5454 191.268 61.0507C194.94 64.723 199.28 69.5637 200.782 72.0675C202.785 75.4059 203.119 77.4089 201.951 79.2451C200.615 81.415 198.779 80.5804 190.767 74.4044C185.426 70.2314 177.747 65.3907 173.574 63.5545C169.401 61.7184 164.394 60.0492 162.224 60.0492C160.221 60.0492 158.551 60.55 158.551 61.2177C158.551 62.0523 162.557 63.8884 167.231 65.7245C172.072 67.3937 180.084 71.7337 184.758 75.239C189.599 78.7443 193.605 82.2496 193.605 82.9173C193.605 83.7519 189.432 88.5926 184.424 93.7672C179.416 99.1086 174.91 103.449 174.409 103.449C173.908 103.449 170.737 101.612 167.398 99.4425C163.893 97.1056 156.548 94.101 151.04 92.4318C145.198 90.9295 135.516 89.7611 127.671 89.7611C120.327 89.7611 111.313 90.5957 107.641 91.4303C103.968 92.2649 99.4615 93.7672 97.7923 94.4348C94.7877 95.7702 94.6208 95.4364 95.9561 90.0949C96.6238 86.9234 98.293 82.0827 99.7953 79.5789C101.131 76.9082 104.803 73.7367 107.808 72.4013C110.979 71.066 116.32 70.0644 119.659 70.0644C123.164 70.0644 131.343 71.5667 137.686 73.2359C144.029 75.0721 149.705 76.0736 150.205 75.5728C150.706 75.239 149.538 73.7367 147.702 72.4013C145.865 71.066 139.022 68.896 132.679 67.3937C126.336 66.0583 118.49 65.2237 115.653 65.7245C112.648 66.2253 110.144 66.2253 110.144 65.3907C110.144 64.723 111.814 62.553 113.817 60.7169C115.987 58.7138 120.327 55.7093 123.498 54.0401Z" fill="#FFBDF0"/>
<path d="M206.624 82.0827C210.464 80.0797 216.473 77.7428 219.978 76.7413C223.317 75.9067 231.829 75.4059 238.673 75.7397C247.52 76.0736 253.529 77.4089 259.538 80.2466C264.212 82.4166 271.223 87.5911 275.396 91.7641C279.569 96.1041 284.91 103.282 287.414 107.788C289.918 112.295 292.422 119.64 294.258 132.66L287.581 124.314C283.909 119.64 278.066 113.798 274.394 110.96C270.889 108.289 264.379 104.784 260.039 103.115C255.532 101.446 250.525 100.11 248.688 100.11C246.852 100.11 245.35 100.611 245.35 101.279C245.35 102.113 249.189 103.949 254.03 105.452C258.871 106.954 266.716 110.96 271.223 114.465C275.897 117.804 282.24 123.98 285.411 128.153C289.584 133.661 291.42 137.834 291.921 143.343C292.255 148.016 291.42 153.525 289.751 157.197C288.249 160.702 286.579 163.54 285.912 163.54C285.077 163.54 283.241 161.537 281.739 159.033C280.236 156.362 276.063 151.355 272.558 147.849C269.053 144.177 262.543 138.335 257.869 134.83C253.362 131.491 244.349 126.651 237.839 124.314C227.49 120.641 223.817 120.141 204.455 120.308C192.436 120.474 181.419 119.974 179.917 119.473C178.081 118.805 176.913 116.802 176.913 114.298C176.913 111.795 178.248 109.458 180.251 108.456C182.087 107.455 188.931 106.787 195.274 106.787C201.951 106.787 206.958 106.119 206.958 105.118C206.958 104.116 204.455 102.948 201.617 102.447C198.612 101.946 193.271 101.779 189.932 101.946C186.427 102.28 183.589 102.28 183.589 101.779C183.423 101.279 187.095 97.4394 191.435 93.2664C195.775 89.0934 202.618 84.0858 206.624 82.0827Z" fill="#FFBDF0"/>
</svg>
