<?xml version="1.0" encoding="UTF-8"?>
<svg id="Calque_1" data-name="Calque 1" xmlns="http://www.w3.org/2000/svg" viewBox="0 0 2193.57 1382.94">
  <defs>
    <style>
      .cls-1 {
        fill: #f44f27;
      }
    </style>
  </defs>
  <path class="cls-1" d="M918.57,461.85v201.08h-55.32v-23.92c-15.32,17.57-37.75,26.91-62.42,26.91-50.46,0-85.96-28.41-85.96-90.45v-113.62h58.31v105.03c0,33.64,14.95,48.59,40.74,48.59s46.35-17.19,46.35-54.19v-99.42h58.31Z"/>
  <path class="cls-1" d="M1385,599.77l31.02,33.64c-18.69,21.3-46.72,32.52-82.97,32.52-69.52,0-114.74-43.73-114.74-103.53s45.6-103.53,107.64-103.53c56.81,0,103.53,37.38,103.91,101.66l-148.76,28.78c8.6,19.81,27.28,29.9,53.45,29.9,21.3,0,36.63-6.35,50.46-19.44ZM1275.49,556.41l97.92-19.06c-5.61-20.56-23.17-34.39-47.47-34.39-29.15,0-49.34,19.44-50.46,53.45Z"/>
  <path class="cls-1" d="M821.53,805.97v115.12h-58.31v-106.15c0-32.52-14.58-47.47-38.12-47.47-26.16,0-44.48,16.82-44.48,52.7v100.91h-58.31v-106.15c0-32.52-13.83-47.47-38.12-47.47-25.79,0-44.1,16.82-44.1,52.7v100.91h-58.31v-201.08h55.69v23.17c14.95-17.19,37.38-26.16,63.16-26.16,28.03,0,51.95,10.84,66.16,32.89,16.07-20.56,42.23-32.89,72.51-32.89,47.84,0,82.23,27.66,82.23,88.95Z"/>
  <path class="cls-1" d="M1666.93,857.92l31.02,33.64c-18.69,21.3-46.72,32.52-82.97,32.52-69.52,0-114.74-43.73-114.74-103.53s45.6-103.53,107.64-103.53c56.81,0,103.53,37.38,103.91,101.66l-148.76,28.78c8.6,19.81,27.28,29.9,53.45,29.9,21.3,0,36.63-6.35,50.46-19.44ZM1557.42,814.56l97.92-19.06c-5.61-20.56-23.17-34.39-47.47-34.39-29.15,0-49.34,19.44-50.46,53.45Z"/>
  <g>
    <g>
      <path class="cls-1" d="M971.29,717.02c-62.63.21-108.61,41.75-110.09,100.59-.01.48-.02.96-.03,1.45,7.17.2,13.88.75,20.15,1.58,30.25-.67,83.86-14.62,89.96-103.63Z"/>
      <path class="cls-1" d="M971.77,717.01c-.13,0-.25,0-.38,0,.07,12.52,4.17,99.9,103.44,102,4.29-.13,6.83.03,6.83.03-2.33.04-4.6.02-6.83-.03-23.24.69-98.15,9.68-103.16,96.39.03,4.48-.27,7.16-.27,7.16.03-2.45.13-4.82.27-7.16-.14-21.34-7.71-83.75-90.34-94.77-10.63.24-18.37-1.16-20.15-1.52,0,.47-.03.94-.03,1.41,0,60.55,46.72,103.53,110.63,103.53s110.26-42.98,110.26-103.53-46.35-103.53-110.26-103.53Z"/>
    </g>
    <polygon class="cls-1" points="968.69 738.45 971.29 722.63 973.86 739.15 976.73 722.98 971.39 717.02 968.69 738.45"/>
    <polygon class="cls-1" points="968.41 915.07 975.9 915.07 973.32 924.08 969.05 924.05 968.41 915.07"/>
  </g>
  <g>
    <path class="cls-1" d="M1177.02,547.82v115.12h-57l-.93-106.15c0-32.52-14.86-47.47-40.48-47.47-27.85,0-47.91,17.19-47.91,54.2v99.42h-57.94v-201.08h55.34v23.55c15.6-17.19,39-26.54,66.11-26.54,47.17,0,82.82,27.66,82.82,88.95Z"/>
    <path class="cls-1" d="M1460.64,805.97v115.12h-58.31v-106.15c0-32.52-14.58-47.47-38.12-47.47-26.16,0-44.48,16.82-44.48,52.7v100.91h-58.31v-106.15c0-32.52-13.83-47.47-38.12-47.47-25.79,0-44.1,16.82-44.1,52.7v100.91h-58.31v-201.08h55.69v23.17c14.95-17.19,37.38-26.16,63.16-26.16,28.03,0,51.95,10.84,66.16,32.89,16.07-20.56,42.23-32.89,72.51-32.89,47.84,0,82.23,27.66,82.23,88.95Z"/>
    <polygon class="cls-1" points="1176.65 734.56 1120.9 734.68 1120.01 657.66 1177.02 657.66 1176.65 734.56"/>
  </g>
</svg>