<?xml version="1.0" encoding="UTF-8"?>
<svg id="Calque_2" data-name="Calque 2" xmlns="http://www.w3.org/2000/svg" viewBox="0 0 1182.61 841.89">
  <defs>
    <style>
      .cls-1 {
        stroke-width: 2px;
      }

      .cls-1, .cls-2, .cls-3, .cls-4, .cls-5, .cls-6 {
        stroke-miterlimit: 10;
      }

      .cls-1, .cls-2, .cls-3, .cls-4, .cls-6 {
        stroke: #000;
      }

      .cls-1, .cls-4, .cls-6 {
        fill: none;
        stroke-linecap: round;
      }

      .cls-2 {
        fill: #fdd017;
      }

      .cls-2, .cls-3, .cls-6 {
        stroke-width: 5px;
      }

      .cls-3 {
        fill: #fff;
      }

      .cls-5 {
        fill: #e9522d;
        stroke: #1e1e1c;
      }
    </style>
  </defs>
  <path class="cls-2" d="M678.39,492.21l-59.34-34.24c-7.43-4.29-16.55-4.43-24.11-.38l-60.38,32.37c-25.22,13.52-54.74-8.63-48.79-36.63l14.23-67.01c1.78-8.39-.9-17.11-7.09-23.04l-49.44-47.42c-20.66-19.81-8.7-54.73,19.76-57.72l68.13-7.18c8.53-.9,15.99-6.14,19.72-13.86l29.82-61.67c12.46-25.77,49.36-25.19,61,.95l27.88,62.58c3.49,7.84,10.78,13.31,19.28,14.47l67.87,9.3c28.36,3.89,39.21,39.16,17.94,58.31l-50.9,45.85c-6.37,5.74-9.33,14.37-7.81,22.81l12.13,67.42c5.07,28.17-25.12,49.39-49.91,35.09Z"/>
  <ellipse class="cls-3" cx="571.02" cy="321.53" rx="24.62" ry="50.83"/>
  <path d="M571.02,270.7l-2.89,36.8,13.63,12.52-12.74,7.83s1.41,28.94,4.28,41.07c.53,2.25,3.27,3.1,4.97,1.54l8.62-7.92,3.77-10.36,4.98-19.91-.53-21.23-3.25-16.58-6.34-14.02-9.22-8.58-5.28-1.17Z"/>
  <path class="cls-4" d="M540.35,279.71s4.42,11.86,8.67,12.92"/>
  <path class="cls-4" d="M544.4,274.21s4.42,11.86,8.67,12.92"/>
  <ellipse class="cls-3" cx="640.49" cy="325.04" rx="24.62" ry="50.83"/>
  <path d="M640.49,274.21l-2.89,36.8,13.63,12.52-12.74,7.83s1.41,28.94,4.28,41.07c.53,2.25,3.27,3.1,4.97,1.54l8.62-7.92,3.77-10.36,4.98-19.91-.53-21.23-3.25-16.58-6.34-14.02-9.22-8.58-5.28-1.17Z"/>
  <path class="cls-4" d="M665.75,270.42s-2.53,11.59-8.74,13.9"/>
  <path class="cls-4" d="M669.47,276.57s-2.53,11.59-8.74,13.9"/>
  <path class="cls-1" d="M598.73,373.27s20.65-18.23,23.43,2.6c0,0,1.79,8.91-16.88,11.89"/>
  <path class="cls-1" d="M576.63,390.1s17.05,20.18-10.33,17.37"/>
  <path class="cls-1" d="M581.45,403.62s26.2,17.11,56.14-4.7"/>
  <path class="cls-5" d="M698.11,382.4l-2.23.45c-6.97,1.4-12.42,6.85-13.83,13.83l-.45,2.23-.45-2.23c-1.4-6.97-6.85-12.42-13.83-13.83l-2.23-.45,2.23-.45c6.97-1.4,12.42-6.85,13.83-13.83l.45-2.23.45,2.23c1.4,6.97,6.85,12.42,13.83,13.83l2.23.45Z"/>
  <path class="cls-5" d="M545.55,382.07l-2.23.45c-6.97,1.4-12.42,6.85-13.83,13.83l-.45,2.23-.45-2.23c-1.4-6.97-6.85-12.42-13.83-13.83l-2.23-.45,2.23-.45c6.97-1.4,12.42-6.85,13.83-13.83l.45-2.23.45,2.23c1.4,6.97,6.85,12.42,13.83,13.83l2.23.45Z"/>
  <path d="M405.48,323.39l22.3-3.79,5.1,41.69s-.73,6.85,9.18,6.85,55.53-1.74,55.53-1.74l2.61,11.93-2.76,9.49-74.19.73s-10.06-.29-11.08-11.81l-6.7-53.35Z"/>
  <path d="M723.98,366.89s31.68,26.72,43.14,62.87c0,0-13.27,5.68-14.57,9.13,0,0-21.07-40.94-34.65-47.41s6.07-24.59,6.07-24.59Z"/>
  <path d="M553.64,481.75v50.66h-32.51s1.13,16.07-.95,20.6h43.85s12.34-1.7,11.65-17.2v-65.4l-22.05,11.34Z"/>
  <path class="cls-6" d="M425.85,304.19s6.42-3.07,6.97-5.95l3.63,11.03s-1.9,10.3-8.67,10.33-29.09,4.03-29.09,4.03c0,0-13.67-2.88-11.07-15.16,0,0,10.04,2.23,11.62-.56"/>
  <path class="cls-6" d="M386.71,307.39s-18.94-17.12-16.44-31.63,24.59,1.65,27.17,5.89c2.07,3.4,7.84,17.56-17.28,8.37"/>
  <path class="cls-6" d="M378.66,267.07s-.58-14.99,13.73-10.73,15.92,19.72,14.19,22.03-4,6.69-7.07,5.42"/>
  <path class="cls-6" d="M438.87,272.83s.23-18.57-15.69-19.61-17.76,12.57-17.76,12.57l2.19,7.04s9,5.54,19.26,4.38"/>
  <path class="cls-6" d="M389.92,255s-25.11-33.04-17.04-48.26,35.99,38.18,35.99,38.18c0,0,1.85-43.83,17.88-43.95s.58,50.52.58,50.52"/>
  <path class="cls-6" d="M757.71,446.54s-14.35,3.86-14.06,21.26-1.17,23.26,9.37,19.74,8.35-11.57,8.35-11.57"/>
  <path class="cls-6" d="M766.5,473.34s13.33.59,15.52-14.79"/>
  <path class="cls-6" d="M746.43,453.71c-1.17-10.25,10.88-18.97,10.88-18.97,0,0,23.83-12.23,28.37,0s-10.54,6.77-10.54,6.77"/>
  <path class="cls-6" d="M786.53,441.51s31.4,26.25,30.94,56.1c0,0,4.71,21.67-5.9,21.16l-13.16-25.43"/>
  <path class="cls-6" d="M784.75,496.15s7.92,32.2,16.99,31.05,5.75-14.31,5.75-14.31"/>
  <path class="cls-6" d="M772.73,498.7s6.77,33.1,15.84,31.43,5.92-8.45,5.92-8.45"/>
  <path class="cls-6" d="M757.02,487.07s6.52,41.53,15.72,43.83,8.69-6.35,8.69-6.35"/>
  <line class="cls-6" x1="773.37" y1="489.25" x2="797.52" y2="478.77"/>
  <g>
    <path d="M627.32,464.23s31.11,42.67,33.44,50.17,5.61,15.19-.8,23.35-17.66,21.17-17.66,21.17l15.96,14.41,23.68-32.41s7.33-16.2.99-28.99-10.59-23.74-10.59-23.74l-45.03-23.95Z"/>
    <path class="cls-6" d="M619.73,584.52s-18.79-29.89,17.6-24.79c0,0,18.35,3.69,25.58,21.88s-17.17,12.31-17.17,12.31"/>
    <path class="cls-6" d="M624.03,606.6s17.51-10.44,30.36-9.2c0,0-3.14,6.27,2.48,8.99s24.01,21.03,21.5,40.09c-2.51,19.06-60.59,6.84-67.75-9.36s-22.72-27.52-11.52-44.14c11.2-16.62,15.54-16.34,15.54-16.34"/>
  </g>
  <path class="cls-6" d="M491.58,526.69s-5.7-14.66,20.52-10.42c0,0,12.42,5.08,8.08,36.74s-33.66,8.21-28.44-2.7"/>
  <path class="cls-6" d="M493.21,516.75s-25.73-16.13-43.49,6.03-6.53,65.55-3.26,72.81c3.75,8.31,23.45,27.85,41.05-3.91s-7.82-37.3-7.82-37.3"/>
</svg>