<svg width="170" height="165" viewBox="0 0 170 165" fill="none" xmlns="http://www.w3.org/2000/svg">
<g filter="url(#filter0_d_2_970)">
<path d="M135.838 69.4811L36.5999 24.9199C34.3715 23.9193 31.95 25.988 32.578 28.356L57.9871 124.176C58.6323 126.61 61.8689 127.073 63.2319 124.928L85.8887 89.2641C86.2833 88.643 86.8953 88.1905 87.6024 87.997L135.347 74.9358C137.984 74.2143 138.31 70.5914 135.838 69.4811Z" fill="#F24E1E"/>
<path d="M138.043 64.6763L38.8053 20.1152C32.5416 17.3026 25.7353 23.1174 27.5003 29.7734L52.9094 125.594C54.7231 132.433 63.8206 133.737 67.6519 127.706L89.8109 92.8258L136.664 80.0085C144.077 77.9805 144.993 67.7971 138.043 64.6763Z" stroke="white" stroke-width="10.5123"/>
</g>
<defs>
<filter id="filter0_d_2_970" x="0.961271" y="0.120125" width="168.061" height="164.696" filterUnits="userSpaceOnUse" color-interpolation-filters="sRGB">
<feFlood flood-opacity="0" result="BackgroundImageFix"/>
<feColorMatrix in="SourceAlpha" type="matrix" values="0 0 0 0 0 0 0 0 0 0 0 0 0 0 0 0 0 0 127 0" result="hardAlpha"/>
<feOffset dy="6.99845"/>
<feGaussianBlur stdDeviation="10.4977"/>
<feColorMatrix type="matrix" values="0 0 0 0 0 0 0 0 0 0 0 0 0 0 0 0 0 0 0.4 0"/>
<feBlend mode="normal" in2="BackgroundImageFix" result="effect1_dropShadow_2_970"/>
<feBlend mode="normal" in="SourceGraphic" in2="effect1_dropShadow_2_970" result="shape"/>
</filter>
</defs>
</svg>
