<svg width="263" height="263" viewBox="0 0 263 263" fill="none" xmlns="http://www.w3.org/2000/svg">
<g filter="url(#filter0_d_2_432)">
<path d="M243.608 135.956C243.839 124.132 228.018 113.255 203.034 105.826C216.996 82.8105 221.58 63.5015 213.182 54.7678C204.887 46.1412 185.679 49.8129 162.456 62.5534C156.024 36.6674 145.678 20.0098 133.696 19.7751C121.925 19.5444 111.05 35.2605 103.624 60.0865C80.9166 46.4988 61.9197 42.0786 53.3458 50.3746C44.5049 58.8757 48.5826 78.8276 62.0949 102.907C36.4726 109.292 19.9727 119.641 19.739 131.57C19.5073 143.394 35.3286 154.271 60.3122 161.7C47.6889 183.48 43.7582 201.645 51.7966 209.951C59.8855 218.364 78.4556 215.047 101.035 202.978C107.492 227.603 117.644 243.415 129.258 243.643C141.134 243.875 152.013 227.949 159.498 202.809C181.639 215.807 200.064 219.901 208.529 211.76C216.727 203.877 213.816 186.104 202.519 164.328C227.407 157.876 243.378 147.675 243.608 135.956Z" fill="white"/>
<path d="M243.608 135.956C243.839 124.132 228.018 113.255 203.034 105.826C216.996 82.8105 221.58 63.5015 213.182 54.7678C204.887 46.1412 185.679 49.8129 162.456 62.5534C156.024 36.6674 145.678 20.0098 133.696 19.7751C121.925 19.5444 111.05 35.2605 103.624 60.0865C80.9166 46.4988 61.9197 42.0786 53.3458 50.3746C44.5049 58.8757 48.5826 78.8276 62.0949 102.907C36.4726 109.292 19.9727 119.641 19.739 131.57C19.5073 143.394 35.3286 154.271 60.3122 161.7C47.6889 183.48 43.7582 201.645 51.7966 209.951C59.8855 218.364 78.4556 215.047 101.035 202.978C107.492 227.603 117.644 243.415 129.258 243.643C141.134 243.875 152.013 227.949 159.498 202.809C181.639 215.807 200.064 219.901 208.529 211.76C216.727 203.877 213.816 186.104 202.519 164.328C227.407 157.876 243.378 147.675 243.608 135.956Z" stroke="black" stroke-width="5.0939"/>
</g>
<defs>
<filter id="filter0_d_2_432" x="0.489498" y="0.525555" width="262.368" height="262.367" filterUnits="userSpaceOnUse" color-interpolation-filters="sRGB">
<feFlood flood-opacity="0" result="BackgroundImageFix"/>
<feColorMatrix in="SourceAlpha" type="matrix" values="0 0 0 0 0 0 0 0 0 0 0 0 0 0 0 0 0 0 127 0" result="hardAlpha"/>
<feOffset/>
<feGaussianBlur stdDeviation="8.35"/>
<feComposite in2="hardAlpha" operator="out"/>
<feColorMatrix type="matrix" values="0 0 0 0 0 0 0 0 0 0 0 0 0 0 0 0 0 0 0.58 0"/>
<feBlend mode="normal" in2="BackgroundImageFix" result="effect1_dropShadow_2_432"/>
<feBlend mode="normal" in="SourceGraphic" in2="effect1_dropShadow_2_432" result="shape"/>
</filter>
</defs>
</svg>
